# xmcd
# 
# Track frame offsets:
#     182
#     23525
#     43517
#     60762
#     84712
#     122357
#     146732
#     168747
#     182972
#     201955
#     228855
#     268782
# 
# Disc length: 3824
# 
# Revision: 6
# Processed by: cddbd v1.5.2PL0 Copyright (c) Steve Scherf et al.
# Submitted via: fre:ac v1.0.27
# 
DISCID=9e0eee0c
DTITLE=Various Artist - Smooth Grooves:  A Sensual Collection
DYEAR=1996
DGENRE=R&B
TTITLE0=Skyy - Real Love
TTITLE1=Tavares - A Penny for Your Thoughts
TTITLE2=Rose Royce - Golden Touch
TTITLE3=Patrice Rushen - Remind Me
TTITLE4=Zapp - Computer Love (extended version)
TTITLE5=Chaka Khan and Rick James - Slow Dancin'
TTITLE6="D" Train - Something's on Your Mind
TTITLE7=Tower of Power - Time Will Tell
TTITLE8=Johnnie Taylor - Your Love is Rated X
TTITLE9=Delegation - Oh Honey (12" version)
TTITLE10=The Moments - Sexy Mama
TTITLE11=The 21st Century - Remember the Rain
EXTD=
EXTT0=
EXTT1=
EXTT2=
EXTT3=
EXTT4=
EXTT5=
EXTT6=
EXTT7=
EXTT8=
EXTT9=
EXTT10=
EXTT11=
PLAYORDER=
